<svg width="65" height="43" viewBox="0 0 65 43" fill="none" xmlns="http://www.w3.org/2000/svg">
<path d="M15.9171 25.5373V36.1666H53.275C54.3424 36.1666 55.2076 35.3013 55.2076 34.234C55.2076 33.2956 55.2076 26.4738 55.2076 25.5373L35.5623 22.9603L15.9171 25.5373Z" fill="#8B9BA9"/>
<path d="M51.3423 25.022V32.3015H15.9171V36.1667H53.275C54.3424 36.1667 55.2076 35.3014 55.2076 34.2341C55.2076 33.3448 55.2076 26.4096 55.2076 25.5373L51.3423 25.022Z" fill="#6C7A88"/>
<path d="M56.9474 0.0692139H21.7158C20.6484 0.0692139 19.7832 0.934506 19.7832 2.00182V8.02447H6.8946C5.08671 8.02447 3.52027 9.27783 3.12357 11.0417L1.66084 17.5463C1.28514 19.2171 1.09549 20.9245 1.09549 22.637V36.1664H19.7832C19.7832 35.8519 19.7832 31.072 19.7832 25.5371H56.9476C58.0149 25.5371 58.8802 24.6718 58.8802 23.6045V2.00182C58.88 0.934377 58.0149 0.0692139 56.9474 0.0692139Z" fill="#FF7E40"/>
<path d="M64.034 17.2375H58.8802V13.7695H61.4571C61.9909 13.7695 62.4234 13.3368 62.4234 12.8032C62.4234 12.2695 61.9909 11.8369 61.4571 11.8369H58.8802V8.36886H62.7455C63.2793 8.36886 63.7118 7.93621 63.7118 7.40255C63.7118 6.8689 63.2793 6.43625 62.7455 6.43625H58.8802V2.96812H64.034C64.5678 2.96812 65.0004 2.53548 65.0004 2.00182C65.0004 1.46816 64.5678 1.03552 64.034 1.03552H58.6195C58.2852 0.458441 57.6625 0.0692139 56.9476 0.0692139H55.015V21.672H19.7832C19.7832 14.8735 19.7832 8.20794 19.7832 8.02434H15.9179V25.5372H13.019C10.2018 25.5372 7.63904 26.641 5.73503 28.4361H1.09549V36.1666H19.7832C19.7832 35.9044 19.7832 31.1025 19.7832 25.5372H31.695H56.9476C57.6625 25.5372 58.2852 25.148 58.6195 24.5709H62.7455C63.2793 24.5709 63.7118 24.1383 63.7118 23.6046C63.7118 23.071 63.2793 22.6383 62.7455 22.6383H58.8802V19.1702H64.034C64.5678 19.1702 65.0004 18.7376 65.0004 18.2039C65.0004 17.6702 64.5678 17.2375 64.034 17.2375Z" fill="#FF6344"/>
<path d="M0.966303 36.1664H8.03913V32.3011H0.966303C0.432646 32.3011 0 32.7338 0 33.2675V35.2001C0 35.7338 0.432646 36.1664 0.966303 36.1664Z" fill="#8B9BA9"/>
<path d="M15.9178 11.8895H6.66399L4.8266 20.0602H15.9178V11.8895Z" fill="#9DC6FB"/>
<path d="M12.2831 16.195H5.69576L4.8266 20.0602H15.9178V11.8895H12.2831V16.195Z" fill="#80B4FB"/>
<path d="M45.8667 42.9305C49.6024 42.9305 52.6309 39.9021 52.6309 36.1663C52.6309 32.4306 49.6024 29.4022 45.8667 29.4022C42.131 29.4022 39.1026 32.4306 39.1026 36.1663C39.1026 39.9021 42.131 42.9305 45.8667 42.9305Z" fill="#4D5967"/>
<path d="M47.2501 29.5449C46.4572 31.0097 46.679 32.8784 47.9171 34.1164L43.8174 38.2162C42.5794 36.978 40.7107 36.7561 39.2458 37.5491C39.8858 40.6177 42.6113 42.9304 45.8673 42.9304C49.5971 42.9304 52.6314 39.8961 52.6314 36.1663C52.6312 32.9104 50.3187 30.185 47.2501 29.5449Z" fill="#35404A"/>
<path d="M45.8664 39.0654C47.4675 39.0654 48.7654 37.7675 48.7654 36.1665C48.7654 34.5655 47.4675 33.2676 45.8664 33.2676C44.2654 33.2676 42.9675 34.5655 42.9675 36.1665C42.9675 37.7675 44.2654 39.0654 45.8664 39.0654Z" fill="#FFF9EB"/>
<path d="M13.0188 42.9305C16.7545 42.9305 19.7829 39.9021 19.7829 36.1663C19.7829 32.4306 16.7545 29.4022 13.0188 29.4022C9.28304 29.4022 6.25464 32.4306 6.25464 36.1663C6.25464 39.9021 9.28304 42.9305 13.0188 42.9305Z" fill="#4D5967"/>
<path d="M14.402 29.5449C13.6091 31.0097 13.8308 32.8784 15.069 34.1164L10.9693 38.2162C9.73123 36.978 7.86253 36.7561 6.39761 37.5491C7.03769 40.6177 9.76318 42.9304 13.0191 42.9304C16.7489 42.9304 19.7832 39.8961 19.7832 36.1663C19.7832 32.9104 17.4707 30.185 14.402 29.5449Z" fill="#35404A"/>
<path d="M13.0185 39.0654C14.6195 39.0654 15.9174 37.7675 15.9174 36.1665C15.9174 34.5655 14.6195 33.2676 13.0185 33.2676C11.4175 33.2676 10.1196 34.5655 10.1196 36.1665C10.1196 37.7675 11.4175 39.0654 13.0185 39.0654Z" fill="#FFF9EB"/>
<path d="M29.5608 10.8712V11.8375H30.7846C31.3183 11.8375 31.7507 12.2699 31.7507 12.8037C31.7507 13.3374 31.3183 13.77 30.7846 13.77H29.5608V15.7023C29.5608 16.2361 29.1281 16.6686 28.5946 16.6686C28.0611 16.6686 27.6285 16.2362 27.6285 15.7023V9.90513C27.6285 9.37148 28.0611 8.93909 28.5946 8.93909H31.5575C32.0912 8.93909 32.5236 9.37148 32.5236 9.90513C32.5236 10.4389 32.0912 10.8714 31.5575 10.8714H29.5608V10.8712Z" fill="#FFF9EB"/>
<path d="M38.7696 15.0216C39.145 15.4003 39.1426 16.0122 38.7638 16.3879C38.5751 16.5746 38.3293 16.668 38.0834 16.668C37.8347 16.668 37.5862 16.5727 37.3973 16.3821L35.7646 14.7357H35.2493V15.7017C35.2493 16.2355 34.8166 16.668 34.2831 16.668C33.7496 16.668 33.317 16.2356 33.317 15.7017V9.90452C33.317 9.37087 33.7496 8.93848 34.2831 8.93848H36.1674C37.7566 8.93848 39.0497 10.2389 39.0497 11.837C39.0497 12.7799 38.5994 13.6187 37.9038 14.1485L38.7696 15.0216ZM37.1172 11.837C37.1172 11.3041 36.691 10.8707 36.1674 10.8707H35.2493V12.803H36.1674C36.691 12.803 37.1172 12.3696 37.1172 11.837Z" fill="#FFF9EB"/>
<path d="M45.0384 15.7016C45.0384 16.2354 44.606 16.6679 44.0724 16.6679H41.1094C40.5759 16.6679 40.1434 16.2355 40.1434 15.7016V9.9044C40.1434 9.37074 40.5759 8.93835 41.1094 8.93835H44.0724C44.606 8.93835 45.0384 9.37074 45.0384 9.9044C45.0384 10.4382 44.606 10.8707 44.0724 10.8707H42.0756V11.837H43.2995C43.8331 11.837 44.2655 12.2694 44.2655 12.8032C44.2655 13.337 43.8331 13.7695 43.2995 13.7695H42.0756V14.7357H44.0724C44.606 14.7355 45.0384 15.1679 45.0384 15.7016Z" fill="#FFF9EB"/>
<path d="M51.0341 15.7016C51.0341 16.2354 50.6017 16.6679 50.068 16.6679H47.1051C46.5716 16.6679 46.139 16.2355 46.139 15.7016V9.9044C46.139 9.37074 46.5716 8.93835 47.1051 8.93835H50.068C50.6017 8.93835 51.0341 9.37074 51.0341 9.9044C51.0341 10.4382 50.6017 10.8707 50.068 10.8707H48.0713V11.837H49.2951C49.8288 11.837 50.2612 12.2694 50.2612 12.8032C50.2612 13.337 49.8288 13.7695 49.2951 13.7695H48.0713V14.7357H50.068C50.6017 14.7355 51.0341 15.1679 51.0341 15.7016Z" fill="#FFF9EB"/>
</svg>
